<mxfile host="app.diagrams.net" modified="2022-02-15T13:18:26.175Z" agent="5.0 (X11)" etag="BI2cbN5S3z88aqDbOuNh" version="16.5.6" type="github">
  <diagram id="kgpKYQtTHZ0yAKxKKP6v" name="Page-1">
    <mxGraphModel dx="1422" dy="727" grid="1" gridSize="10" guides="1" tooltips="1" connect="1" arrows="1" fold="1" page="1" pageScale="1" pageWidth="850" pageHeight="1100" math="0" shadow="0">
      <root>
        <mxCell id="0" />
        <mxCell id="1" parent="0" />
        <mxCell id="3nuBFxr9cyL0pnOWT2aG-1" value="Customer" style="shape=umlLifeline;perimeter=lifelinePerimeter;container=1;collapsible=0;recursiveResize=0;rounded=0;shadow=0;strokeWidth=1;" parent="1" vertex="1">
          <mxGeometry x="40" y="80" width="100" height="820" as="geometry" />
        </mxCell>
        <mxCell id="3nuBFxr9cyL0pnOWT2aG-2" value="" style="points=[];perimeter=orthogonalPerimeter;rounded=0;shadow=0;strokeWidth=1;fillColor=#d0cee2;strokeColor=#56517e;" parent="3nuBFxr9cyL0pnOWT2aG-1" vertex="1">
          <mxGeometry x="45" y="70" width="10" height="460" as="geometry" />
        </mxCell>
        <mxCell id="3nuBFxr9cyL0pnOWT2aG-5" value="Cake Company" style="shape=umlLifeline;perimeter=lifelinePerimeter;container=1;collapsible=0;recursiveResize=0;rounded=0;shadow=0;strokeWidth=1;" parent="1" vertex="1">
          <mxGeometry x="200" y="80" width="100" height="820" as="geometry" />
        </mxCell>
        <mxCell id="3nuBFxr9cyL0pnOWT2aG-6" value="" style="points=[];perimeter=orthogonalPerimeter;rounded=0;shadow=0;strokeWidth=1;fillColor=#d0cee2;strokeColor=#56517e;" parent="3nuBFxr9cyL0pnOWT2aG-5" vertex="1">
          <mxGeometry x="45" y="80" width="10" height="660" as="geometry" />
        </mxCell>
        <mxCell id="3nuBFxr9cyL0pnOWT2aG-8" value="Order Cake()" style="verticalAlign=bottom;endArrow=block;entryX=0;entryY=0;shadow=0;strokeWidth=1;" parent="1" source="3nuBFxr9cyL0pnOWT2aG-2" target="3nuBFxr9cyL0pnOWT2aG-6" edge="1">
          <mxGeometry relative="1" as="geometry">
            <mxPoint x="275" y="160" as="sourcePoint" />
          </mxGeometry>
        </mxCell>
        <mxCell id="3nuBFxr9cyL0pnOWT2aG-9" value="Verify Order()" style="verticalAlign=bottom;endArrow=block;shadow=0;strokeWidth=1;dashed=1;" parent="1" edge="1">
          <mxGeometry relative="1" as="geometry">
            <mxPoint x="240" y="200" as="sourcePoint" />
            <mxPoint x="95" y="200" as="targetPoint" />
          </mxGeometry>
        </mxCell>
        <mxCell id="3nuBFxr9cyL0pnOWT2aG-10" value="Confirm Verification()" style="verticalAlign=bottom;endArrow=block;dashed=1;endSize=8;shadow=0;strokeWidth=1;endFill=1;" parent="1" target="3nuBFxr9cyL0pnOWT2aG-6" edge="1">
          <mxGeometry relative="1" as="geometry">
            <mxPoint x="240" y="257" as="targetPoint" />
            <mxPoint x="100" y="250" as="sourcePoint" />
            <Array as="points">
              <mxPoint x="180" y="250" />
            </Array>
          </mxGeometry>
        </mxCell>
        <mxCell id="dcxFwF6ZALwwfBUGg-lV-9" value="Bakers" style="shape=umlLifeline;perimeter=lifelinePerimeter;container=1;collapsible=0;recursiveResize=0;rounded=0;shadow=0;strokeWidth=1;" vertex="1" parent="1">
          <mxGeometry x="360" y="80" width="100" height="810" as="geometry" />
        </mxCell>
        <mxCell id="dcxFwF6ZALwwfBUGg-lV-10" value="" style="points=[];perimeter=orthogonalPerimeter;rounded=0;shadow=0;strokeWidth=1;fillColor=#d0cee2;strokeColor=#56517e;" vertex="1" parent="dcxFwF6ZALwwfBUGg-lV-9">
          <mxGeometry x="45" y="240" width="10" height="460" as="geometry" />
        </mxCell>
        <mxCell id="dcxFwF6ZALwwfBUGg-lV-33" value="Gather Ingredients()" style="html=1;verticalAlign=bottom;endArrow=block;rounded=0;fontSize=11;" edge="1" parent="dcxFwF6ZALwwfBUGg-lV-9">
          <mxGeometry width="80" relative="1" as="geometry">
            <mxPoint x="60" y="390" as="sourcePoint" />
            <mxPoint x="205" y="390" as="targetPoint" />
          </mxGeometry>
        </mxCell>
        <mxCell id="dcxFwF6ZALwwfBUGg-lV-36" value="Confirm receipt()" style="html=1;verticalAlign=bottom;endArrow=block;dashed=1;endSize=8;rounded=0;fontSize=11;endFill=1;" edge="1" parent="dcxFwF6ZALwwfBUGg-lV-9">
          <mxGeometry relative="1" as="geometry">
            <mxPoint x="39.5" y="346" as="sourcePoint" />
            <mxPoint x="-105" y="346" as="targetPoint" />
          </mxGeometry>
        </mxCell>
        <mxCell id="dcxFwF6ZALwwfBUGg-lV-13" value="Cake" style="shape=umlLifeline;perimeter=lifelinePerimeter;container=1;collapsible=0;recursiveResize=0;rounded=0;shadow=0;strokeWidth=1;" vertex="1" parent="1">
          <mxGeometry x="520" y="80" width="100" height="810" as="geometry" />
        </mxCell>
        <mxCell id="dcxFwF6ZALwwfBUGg-lV-14" value="" style="points=[];perimeter=orthogonalPerimeter;rounded=0;shadow=0;strokeWidth=1;fillColor=#d0cee2;strokeColor=#56517e;" vertex="1" parent="dcxFwF6ZALwwfBUGg-lV-13">
          <mxGeometry x="45" y="250" width="10" height="450" as="geometry" />
        </mxCell>
        <mxCell id="dcxFwF6ZALwwfBUGg-lV-20" value="Delivery Company" style="shape=umlLifeline;perimeter=lifelinePerimeter;container=1;collapsible=0;recursiveResize=0;rounded=0;shadow=0;strokeWidth=1;" vertex="1" parent="1">
          <mxGeometry x="680" y="80" width="100" height="820" as="geometry" />
        </mxCell>
        <mxCell id="dcxFwF6ZALwwfBUGg-lV-21" value="" style="points=[];perimeter=orthogonalPerimeter;rounded=0;shadow=0;strokeWidth=1;fillColor=#d0cee2;strokeColor=#56517e;" vertex="1" parent="dcxFwF6ZALwwfBUGg-lV-20">
          <mxGeometry x="45" y="70" width="10" height="190" as="geometry" />
        </mxCell>
        <mxCell id="dcxFwF6ZALwwfBUGg-lV-27" value="&lt;font style=&quot;font-size: 11px&quot;&gt;If confirmed&lt;/font&gt;" style="shape=umlFrame;whiteSpace=wrap;html=1;fillColor=#b0e3e6;strokeColor=#0e8088;" vertex="1" parent="1">
          <mxGeometry x="20" y="290" width="370" height="50" as="geometry" />
        </mxCell>
        <mxCell id="dcxFwF6ZALwwfBUGg-lV-28" value="Send Order to Baker()" style="html=1;verticalAlign=bottom;endArrow=block;rounded=0;fontSize=11;" edge="1" parent="1">
          <mxGeometry width="80" relative="1" as="geometry">
            <mxPoint x="258" y="320" as="sourcePoint" />
            <mxPoint x="407.5" y="320" as="targetPoint" />
          </mxGeometry>
        </mxCell>
        <mxCell id="dcxFwF6ZALwwfBUGg-lV-29" value="else" style="shape=umlFrame;whiteSpace=wrap;html=1;fillColor=#fad9d5;strokeColor=#ae4132;" vertex="1" parent="1">
          <mxGeometry x="20" y="340" width="370" height="50" as="geometry" />
        </mxCell>
        <mxCell id="dcxFwF6ZALwwfBUGg-lV-30" value="Cancel Order()" style="html=1;verticalAlign=bottom;endArrow=block;dashed=1;endSize=8;rounded=0;fontSize=11;endFill=1;" edge="1" parent="1">
          <mxGeometry relative="1" as="geometry">
            <mxPoint x="240" y="370" as="sourcePoint" />
            <mxPoint x="96" y="370" as="targetPoint" />
          </mxGeometry>
        </mxCell>
        <mxCell id="dcxFwF6ZALwwfBUGg-lV-34" value="Make Cake()" style="html=1;verticalAlign=bottom;endArrow=block;rounded=0;fontSize=11;" edge="1" parent="1">
          <mxGeometry width="80" relative="1" as="geometry">
            <mxPoint x="420" y="511" as="sourcePoint" />
            <mxPoint x="565" y="511" as="targetPoint" />
          </mxGeometry>
        </mxCell>
        <mxCell id="dcxFwF6ZALwwfBUGg-lV-35" value="Package Cake()" style="html=1;verticalAlign=bottom;endArrow=block;rounded=0;fontSize=11;" edge="1" parent="1">
          <mxGeometry width="80" relative="1" as="geometry">
            <mxPoint x="421" y="556" as="sourcePoint" />
            <mxPoint x="566" y="556" as="targetPoint" />
          </mxGeometry>
        </mxCell>
        <mxCell id="dcxFwF6ZALwwfBUGg-lV-37" value="Alert Cake is Finished()" style="html=1;verticalAlign=bottom;endArrow=block;rounded=0;fontSize=11;" edge="1" parent="1">
          <mxGeometry width="80" relative="1" as="geometry">
            <mxPoint x="407" y="600" as="sourcePoint" />
            <mxPoint x="254" y="600" as="targetPoint" />
          </mxGeometry>
        </mxCell>
      </root>
    </mxGraphModel>
  </diagram>
</mxfile>
